<svg width="71" height="71" viewBox="0 0 71 71" fill="none" xmlns="http://www.w3.org/2000/svg">
<path d="M35.5003 41.4162C40.4111 41.4162 44.3457 37.4521 44.3457 32.5412L44.3753 14.7912C44.3753 9.88038 40.4111 5.91621 35.5003 5.91621C30.5894 5.91621 26.6253 9.88038 26.6253 14.7912V32.5412C26.6253 37.4521 30.5894 41.4162 35.5003 41.4162ZM51.1794 32.5412C51.1794 41.4162 43.6653 47.6287 35.5003 47.6287C27.3353 47.6287 19.8211 41.4162 19.8211 32.5412H14.7919C14.7919 42.6291 22.8386 50.9716 32.5419 52.4212V62.1246H38.4586V52.4212C48.1619 51.0012 56.2086 42.6587 56.2086 32.5412H51.1794Z" fill="url(#paint0_radial_2_289)"/>
<defs>
<radialGradient id="paint0_radial_2_289" cx="0" cy="0" r="1" gradientUnits="userSpaceOnUse" gradientTransform="translate(35.5003 34.0204) rotate(90) scale(28.1042 20.7083)">
<stop stop-color="#FEFEFE"/>
<stop offset="1" stop-opacity="0.28"/>
</radialGradient>
</defs>
</svg>
